<svg width="109" height="43" viewBox="0 0 109 43" fill="none" xmlns="http://www.w3.org/2000/svg">
<g clip-path="url(#clip0)">
<path d="M25.4619 2.72091L22.3462 1.03798C22.2549 0.98839 22.1515 0.962494 22.0463 0.962895C21.9411 0.963297 21.8379 0.989982 21.747 1.04027L1.10438 12.3982C1.01304 12.4484 0.937201 12.5205 0.884463 12.6073C0.831725 12.6942 0.803941 12.7926 0.803894 12.8928V31.6681C0.803961 31.7703 0.832876 31.8707 0.887629 31.9587C0.942382 32.0467 1.02097 32.1191 1.11522 32.1685L21.5062 42.8534C21.6025 42.9035 21.7115 42.9278 21.8213 42.9236C21.9311 42.9193 22.0376 42.8868 22.1294 42.8293L25.4962 40.7118C25.5791 40.6598 25.6472 40.589 25.6943 40.5059C25.7414 40.4228 25.766 40.3299 25.766 40.2355V3.21784C25.7661 3.1168 25.738 3.01753 25.6846 2.93014C25.6312 2.84275 25.5543 2.77036 25.4619 2.72034V2.72091ZM22.0517 2.19482L23.9522 3.2207L4.50066 13.8627L2.62909 12.8808L22.0517 2.19425V2.19482ZM8.20165 28.3452L17.7552 33.5689V35.504L5.87784 29.4002L8.20225 28.3457L8.20165 28.3452ZM17.7552 32.2491L8.82972 27.369V16.3765L17.7552 11.4426V32.2485V32.2491ZM2.00825 13.8621L3.90571 14.8571L3.94907 29.3705C3.94944 29.4732 3.97894 29.5739 4.03446 29.662C4.08999 29.7502 4.16949 29.8225 4.26461 29.8714L18.0707 36.9662C18.1623 37.0136 18.2653 37.0374 18.3696 37.0353C18.4738 37.0332 18.5757 37.0052 18.6651 36.9542C18.7548 36.9036 18.8291 36.8317 18.8807 36.7456C18.9323 36.6595 18.9595 36.5621 18.9596 36.463V10.7759L21.1954 9.5407V41.3832L2.00825 31.3302V13.8621ZM22.3998 41.2882V8.54627C22.3999 8.44568 22.372 8.34686 22.319 8.25977C22.266 8.17268 22.1898 8.10041 22.098 8.05024C22.0062 8.00006 21.9021 7.97377 21.7962 7.97402C21.6902 7.97426 21.5863 8.00103 21.4947 8.05162L7.92525 15.5536C7.83411 15.6039 7.75845 15.6759 7.70582 15.7626C7.6532 15.8493 7.62546 15.9476 7.62536 16.0477V27.3393L5.15041 28.4624L5.11067 14.8497L24.5622 4.2077V39.9284L22.3998 41.2882Z" fill="black"/>
</g>
<path d="M51.3035 15.1192C53.0635 15.1192 54.4075 15.5512 55.3355 16.4152C56.2795 17.2792 56.7515 18.5672 56.7515 20.2792V27.9592H54.5675V26.2792C54.1835 26.8712 53.6315 27.3272 52.9115 27.6472C52.2075 27.9512 51.3675 28.1032 50.3915 28.1032C48.9675 28.1032 47.8235 27.7592 46.9595 27.0712C46.1115 26.3832 45.6875 25.4792 45.6875 24.3592C45.6875 23.2392 46.0955 22.3432 46.9115 21.6712C47.7275 20.9832 49.0235 20.6392 50.7995 20.6392H54.4475V20.1832C54.4475 19.1912 54.1595 18.4312 53.5835 17.9032C53.0075 17.3752 52.1595 17.1112 51.0395 17.1112C50.2875 17.1112 49.5515 17.2392 48.8315 17.4952C48.1115 17.7352 47.5035 18.0632 47.0075 18.4792L46.0475 16.7512C46.7035 16.2232 47.4875 15.8232 48.3995 15.5512C49.3115 15.2632 50.2795 15.1192 51.3035 15.1192ZM50.7755 26.3272C51.6555 26.3272 52.4155 26.1352 53.0555 25.7512C53.6955 25.3512 54.1595 24.7912 54.4475 24.0712V22.2952H50.8955C48.9435 22.2952 47.9675 22.9512 47.9675 24.2632C47.9675 24.9032 48.2155 25.4072 48.7115 25.7752C49.2075 26.1432 49.8955 26.3272 50.7755 26.3272ZM72.8936 15.2392V26.2312C72.8936 28.4552 72.3416 30.0952 71.2376 31.1512C70.1336 32.2232 68.4856 32.7592 66.2936 32.7592C65.0936 32.7592 63.9496 32.5912 62.8616 32.2552C61.7736 31.9352 60.8936 31.4712 60.2216 30.8632L61.3256 29.0872C61.9176 29.5992 62.6456 29.9992 63.5096 30.2872C64.3896 30.5912 65.2936 30.7432 66.2216 30.7432C67.7096 30.7432 68.8056 30.3912 69.5096 29.6872C70.2296 28.9832 70.5896 27.9112 70.5896 26.4712V25.4632C70.0456 26.1192 69.3736 26.6152 68.5736 26.9512C67.7896 27.2712 66.9336 27.4312 66.0056 27.4312C64.7896 27.4312 63.6856 27.1752 62.6936 26.6632C61.7176 26.1352 60.9496 25.4072 60.3896 24.4792C59.8296 23.5352 59.5496 22.4632 59.5496 21.2632C59.5496 20.0632 59.8296 18.9992 60.3896 18.0712C60.9496 17.1272 61.7176 16.3992 62.6936 15.8872C63.6856 15.3752 64.7896 15.1192 66.0056 15.1192C66.9656 15.1192 67.8536 15.2952 68.6696 15.6472C69.5016 15.9992 70.1816 16.5192 70.7096 17.2072V15.2392H72.8936ZM66.2696 25.4152C67.1016 25.4152 67.8456 25.2392 68.5016 24.8872C69.1736 24.5352 69.6936 24.0472 70.0616 23.4232C70.4456 22.7832 70.6376 22.0632 70.6376 21.2632C70.6376 20.0312 70.2296 19.0392 69.4136 18.2872C68.5976 17.5192 67.5496 17.1352 66.2696 17.1352C64.9736 17.1352 63.9176 17.5192 63.1016 18.2872C62.2856 19.0392 61.8776 20.0312 61.8776 21.2632C61.8776 22.0632 62.0616 22.7832 62.4296 23.4232C62.8136 24.0472 63.3336 24.5352 63.9896 24.8872C64.6616 25.2392 65.4216 25.4152 66.2696 25.4152ZM83.7279 15.1192C85.3439 15.1192 86.6239 15.5912 87.5679 16.5352C88.5279 17.4632 89.0079 18.8312 89.0079 20.6392V27.9592H86.7039V20.9032C86.7039 19.6712 86.4079 18.7432 85.8159 18.1192C85.2239 17.4952 84.3759 17.1832 83.2719 17.1832C82.0239 17.1832 81.0399 17.5512 80.3199 18.2872C79.5999 19.0072 79.2399 20.0472 79.2399 21.4072V27.9592H76.9359V15.2392H79.1439V17.1592C79.6079 16.5032 80.2319 15.9992 81.0159 15.6472C81.8159 15.2952 82.7199 15.1192 83.7279 15.1192ZM98.4302 28.1032C97.1662 28.1032 96.0302 27.8232 95.0222 27.2632C94.0142 26.7032 93.2222 25.9352 92.6462 24.9592C92.0862 23.9672 91.8062 22.8472 91.8062 21.5992C91.8062 20.3512 92.0862 19.2392 92.6462 18.2632C93.2222 17.2712 94.0142 16.5032 95.0222 15.9592C96.0302 15.3992 97.1662 15.1192 98.4302 15.1192C99.6942 15.1192 100.822 15.3992 101.814 15.9592C102.822 16.5032 103.606 17.2712 104.166 18.2632C104.742 19.2392 105.03 20.3512 105.03 21.5992C105.03 22.8472 104.742 23.9672 104.166 24.9592C103.606 25.9352 102.822 26.7032 101.814 27.2632C100.822 27.8232 99.6942 28.1032 98.4302 28.1032ZM98.4302 26.0872C99.2462 26.0872 99.9742 25.9032 100.614 25.5352C101.27 25.1512 101.782 24.6232 102.15 23.9512C102.518 23.2632 102.702 22.4792 102.702 21.5992C102.702 20.7192 102.518 19.9432 102.15 19.2712C101.782 18.5832 101.27 18.0552 100.614 17.6872C99.9742 17.3192 99.2462 17.1352 98.4302 17.1352C97.6142 17.1352 96.8782 17.3192 96.2222 17.6872C95.5822 18.0552 95.0702 18.5832 94.6862 19.2712C94.3182 19.9432 94.1342 20.7192 94.1342 21.5992C94.1342 22.4792 94.3182 23.2632 94.6862 23.9512C95.0702 24.6232 95.5822 25.1512 96.2222 25.5352C96.8782 25.9032 97.6142 26.0872 98.4302 26.0872Z" fill="black"/>
<defs>
<clipPath id="clip0">
<rect width="24.9621" height="41.9611" fill="white" transform="translate(0.803894 0.962891)"/>
</clipPath>
</defs>
</svg>
