<svg width="24" height="24" viewBox="0 0 24 24" fill="none" xmlns="http://www.w3.org/2000/svg">
<path d="M7.99951 7L7.99951 10L14.9995 10L14.9995 14L7.99951 14L7.99951 17L2.99951 12L7.99951 7ZM9.99951 22C9.46908 22 8.96037 21.7893 8.5853 21.4142C8.21023 21.0391 7.99951 20.5304 7.99951 20L7.99951 18L9.99951 18L9.99951 20L18.9995 20L18.9995 4L9.99951 4L9.99951 6L7.99951 6L7.99951 4C7.99951 3.46957 8.21022 2.96086 8.5853 2.58579C8.96037 2.21072 9.46908 2 9.99951 2L18.9995 2C19.5299 2 20.0387 2.21071 20.4137 2.58579C20.7888 2.96086 20.9995 3.46957 20.9995 4L20.9995 20C20.9995 20.5304 20.7888 21.0391 20.4137 21.4142C20.0387 21.7893 19.5299 22 18.9995 22L9.99951 22Z" fill="#333333"/>
</svg>
